PathFileType	4	(X/Y/Z)	Kaydara	
DataRate	CameraRate	NumFrames	NumMarkers	Units	OrigDataRate	OrigDataStartFrame	OrigNumFrames	
60.00	60.00	4	74	mm	60.00	552	250	
Frame#	Time	N_lasi			N_rasi			N_rpsi			N_lpsi			N_fneck			N_bneck			N_fhead			N_rhead			N_lhead			N_rshld			N_relbtop			N_relbext			N_relblow			N_rwrext			N_rwrtop			N_rwrlow			N_lshld			N_lelbext			N_lelblow			N_lelbtop			N_lwrext			N_lwrtop			N_lwrlow			N_rtopleg			N_ltopleg			N_rkneefr			N_rkneebk			N_rkneeis			N_lkneefr			N_lknssbk			N_lkneeis			N_rankfr			N_rankis			N_rankbk			N_lankfr			N_lankbk			N_lankis			D_lasi			D_rasi			D_rpsi			D_lpsi			D_fneck			D_bneck			D_fhead			D_rhead			D_lhead			D_rshld			D_relbtop			D_relbext			D_relblow			D_rwrext			D_rwrtop			D_rwrlow			D_lshld			D_lelbext			D_lelblow			D_lelbtop			D_lwrext			D_lwrtop			D_lwrlow			D_rtopleg			D_ltopleg			D_rkneefr			D_rkneebk			D_rkneeis			D_lkneefr			D_lknssbk			D_lkneeis			D_rankfr			D_rankis			D_rankbk			D_lankfr			D_lankbk			D_lankis			
		X1	Y1	Z1	X2	Y2	Z2	X3	Y3	Z3	X4	Y4	Z4	X5	Y5	Z5	X6	Y6	Z6	X7	Y7	Z7	X8	Y8	Z8	X9	Y9	Z9	X10	Y10	Z10	X11	Y11	Z11	X12	Y12	Z12	X13	Y13	Z13	X14	Y14	Z14	X15	Y15	Z15	X16	Y16	Z16	X17	Y17	Z17	X18	Y18	Z18	X19	Y19	Z19	X20	Y20	Z20	X21	Y21	Z21	X22	Y22	Z22	X23	Y23	Z23	X24	Y24	Z24	X25	Y25	Z25	X26	Y26	Z26	X27	Y27	Z27	X28	Y28	Z28	X29	Y29	Z29	X30	Y30	Z30	X31	Y31	Z31	X32	Y32	Z32	X33	Y33	Z33	X34	Y34	Z34	X35	Y35	Z35	X36	Y36	Z36	X37	Y37	Z37	X38	Y38	Z38	X39	Y39	Z39	X40	Y40	Z40	X41	Y41	Z41	X42	Y42	Z42	X43	Y43	Z43	X44	Y44	Z44	X45	Y45	Z45	X46	Y46	Z46	X47	Y47	Z47	X48	Y48	Z48	X49	Y49	Z49	X50	Y50	Z50	X51	Y51	Z51	X52	Y52	Z52	X53	Y53	Z53	X54	Y54	Z54	X55	Y55	Z55	X56	Y56	Z56	X57	Y57	Z57	X58	Y58	Z58	X59	Y59	Z59	X60	Y60	Z60	X61	Y61	Z61	X62	Y62	Z62	X63	Y63	Z63	X64	Y64	Z64	X65	Y65	Z65	X66	Y66	Z66	X67	Y67	Z67	X68	Y68	Z68	X69	Y69	Z69	X70	Y70	Z70	X71	Y71	Z71	X72	Y72	Z72	X73	Y73	Z73	X74	Y74	Z74	

1	9.183	-53.98268	1127.42424	-493.44040	65.78764	1144.22325	-717.39761	324.27425	1206.68762	-615.76393	166.08543	1188.84171	-301.42700	243.57212	1558.55988	-549.83658	140.77464	1659.44321	-519.63371	-108.47004	1706.92352	-530.34081	81.35600	1761.72791	-581.80206	31.24154	1735.17349	-433.72482	220.09056	1519.46411	-755.63065	318.40963	1207.72842	-840.89790	293.51189	1184.42955	-821.38863	230.93439	1224.07570	-847.88895	157.76864	939.00719	-881.27785	112.84826	956.57204	-882.56790	98.81967	964.13399	-837.00821	82.09384	1509.29306	-272.54190	129.10214	1162.86125	-269.37294	43.27156	1175.04158	-210.41826	126.34390	1178.83896	-185.44403	70.59837	878.37234	-197.77672	31.39910	870.91721	-224.85367	58.83571	876.51024	-269.39951	221.92122	985.14687	-747.75574	74.91442	1023.29491	-292.90970	217.04557	533.22830	-652.51175	339.37561	562.42119	-588.05538	208.13364	532.99194	-520.89127	-125.33334	563.06923	-527.00005	-26.10048	561.53278	-436.08021	15.16998	556.05068	-568.96183	356.04851	152.93174	-623.58753	301.13228	153.22600	-565.11341	379.34315	144.07146	-529.04392	-82.66776	207.56580	-553.58688	-14.90804	197.72898	-506.26099	-18.49989	213.77289	-594.82563	-72.09960	1012.90215	1047.26746	-42.23917	1034.99367	1331.20972	-247.44240	1129.84154	1299.56299	-272.80590	1100.25742	1083.65059	-59.79136	1515.92560	1134.65668	-170.47016	1587.10037	1184.07730	24.90963	1690.90714	1061.71066	-65.43463	1721.70822	1218.56140	-149.56071	1709.69864	1088.38417	-49.01327	1467.00134	1356.85760	-0.20271	1130.42534	1449.29794	4.43323	1135.87883	1373.73459	61.63832	1192.24693	1438.78601	216.61160	995.70740	1398.74588	247.96070	1039.72771	1375.72510	217.82036	1034.28619	1330.07904	-259.73141	1470.01633	987.57759	-276.94639	1137.12151	1033.66432	-315.43427	1173.16452	944.62334	-353.06965	1150.94887	1013.39813	-335.17300	912.61536	929.05235	-294.65918	916.61812	909.92668	-262.06129	917.97714	950.33356	-124.12892	985.94681	1400.12039	-210.55347	975.20355	1008.45985	-159.13808	442.79339	1357.33887	-245.87749	493.69678	1399.84955	-260.21334	471.39278	1275.71495	21.89626	468.88336	1062.41898	-94.54609	461.95221	1083.78616	13.66498	464.29043	1164.74739	-329.36432	137.59397	1391.27884	-362.56809	148.46535	1330.34866	-404.70081	163.53474	1399.84177	96.83274	150.52217	1069.34105	34.21600	115.95378	1092.81731	101.89814	146.72480	1136.78787 
2	9.200	-66.02572	1124.12544	-494.19842	50.34691	1141.59637	-719.93263	310.62599	1204.58229	-624.09428	158.45190	1186.13274	-306.16306	231.17573	1556.14471	-554.39026	128.37824	1657.02805	-524.18736	-120.79165	1704.49707	-530.96436	68.08269	1759.25629	-585.48767	20.44839	1732.91718	-436.37894	203.86385	1517.27341	-761.74622	297.56546	1204.60571	-849.06334	273.35270	1181.99333	-828.36769	209.99510	1222.14035	-854.64752	132.07973	938.77327	-887.62543	87.47372	957.01096	-888.23708	74.06431	964.40613	-842.46880	74.54120	1506.51138	-276.30503	125.88925	1160.78781	-273.03078	40.86778	1172.72079	-212.29366	124.63699	1176.97617	-190.39909	69.48992	876.07300	-200.72933	29.47354	868.90823	-226.38966	55.46066	874.50470	-272.05210	206.06647	983.59581	-753.90839	69.40145	1019.92302	-296.98084	210.28177	531.54461	-654.76540	332.43954	563.09124	-591.14944	202.03819	532.37015	-523.01395	-129.83593	560.39528	-530.83904	-28.94475	554.91306	-442.20963	9.23652	549.84844	-576.24870	354.63257	153.73013	-624.13239	299.83801	153.66377	-565.48588	378.28369	145.71731	-529.68063	-118.02402	206.99968	-565.81818	-48.84424	190.00059	-521.97651	-55.72451	208.94270	-610.50556	-58.49919	1013.29704	1039.98825	-26.97754	1034.86710	1321.43387	-231.05307	1129.83498	1294.44534	-259.45566	1099.87183	1077.38686	-47.98429	1516.40701	1125.33623	-158.17814	1587.47498	1175.87082	35.55995	1691.72775	1051.40099	-53.45255	1722.30591	1209.09203	-138.80488	1709.91745	1079.94850	-34.18095	1467.56744	1347.49298	13.09577	1130.69733	1439.48822	15.07892	1135.61607	1366.27869	75.16817	1191.63193	1427.91031	227.86257	993.52142	1386.79993	259.34330	1037.21169	1362.99927	228.40391	1031.90872	1318.15643	-249.56295	1468.67401	980.89394	-264.65246	1135.84900	1029.15237	-304.56997	1171.28166	940.49042	-341.16768	1149.67018	1010.02541	-325.35374	910.61523	927.59514	-285.17963	914.21082	907.97691	-252.20297	915.77965	948.05840	-107.02672	986.27983	1393.57574	-197.14596	975.23170	1002.56706	-140.75092	441.36086	1355.02930	-226.65855	495.19176	1397.30515	-241.36925	471.76136	1273.85155	29.14251	466.79180	1057.19566	-87.21491	460.78392	1079.50935	20.98417	462.00764	1160.19310	-321.86600	141.55669	1390.91827	-354.47647	153.35695	1330.76630	-396.04687	170.53484	1399.88525	102.11972	147.57053	1065.38834	39.18922	113.85926	1089.31717	107.36718	144.60805	1132.51137 
3	9.217	-78.34775	1120.58876	-494.73976	34.22307	1139.06372	-722.31827	297.18618	1202.03445	-633.25367	150.40097	1182.74269	-310.72464	218.56649	1553.40546	-558.35865	115.76901	1654.28879	-528.15575	-133.40483	1701.85944	-531.12480	54.60078	1756.61407	-588.38501	8.94450	1730.48248	-438.57513	187.39401	1514.81537	-767.10373	276.41644	1200.97534	-856.05446	252.90569	1178.97682	-834.25224	188.78498	1219.55177	-860.39162	106.59284	938.10684	-893.26088	62.17742	956.87752	-893.10524	49.32547	964.11423	-847.31430	66.26612	1503.34518	-279.64102	121.56266	1158.22220	-277.16303	37.27968	1169.98489	-214.77840	121.88703	1174.54422	-195.69361	67.81027	873.29018	-204.06050	26.94792	866.26724	-228.43973	51.54395	871.73599	-274.98989	189.85090	981.70425	-758.79433	63.52292	1015.64720	-300.86926	203.15332	529.51885	-657.29996	325.05825	563.67699	-594.43310	195.55233	531.77593	-525.40306	-135.11404	557.96185	-534.82483	-31.90350	548.77174	-448.32359	2.66138	544.45679	-584.06441	353.09624	154.51620	-624.73640	298.64407	154.11716	-565.82714	377.37083	147.52779	-530.53169	-151.22540	208.46813	-575.83050	-80.87482	184.82954	-535.26691	-91.05747	206.87389	-623.42060	-45.39584	1014.74716	1032.09740	-10.60250	1035.93910	1313.50861	-212.98492	1130.61546	1287.47223	-245.31536	1100.46776	1070.70541	-36.33048	1517.66830	1115.93040	-146.44979	1588.22937	1167.48306	46.05437	1693.09357	1041.11496	-41.52310	1723.53088	1199.50806	-128.07074	1710.97351	1071.09619	-19.84022	1469.01459	1337.96143	25.10727	1131.47568	1429.60159	27.47662	1136.03882	1354.99649	88.19273	1191.50963	1417.03156	237.92517	991.17279	1375.71671	269.64336	1034.19472	1351.12396	238.01073	1028.94226	1306.69235	-239.06950	1468.11005	973.81523	-252.21233	1135.23941	1024.36035	-293.24594	1170.08972	935.73166	-328.58341	1148.90953	1006.04294	-315.21276	909.25919	925.38567	-274.99847	912.40425	905.35912	-241.83170	914.18068	945.27718	-89.92352	987.19299	1385.97519	-184.25022	976.54007	996.01250	-119.01907	440.50472	1353.82507	-204.56709	497.12029	1394.49951	-219.26271	472.26753	1272.01157	37.67037	466.20457	1051.98669	-78.66601	461.18217	1074.11072	29.71095	461.90639	1154.74022	-311.70462	147.51518	1393.15689	-343.72238	159.47973	1331.51947	-384.97829	178.94590	1400.02411	106.91111	145.72452	1062.86072	43.37602	113.11490	1086.80008	111.83143	143.18901	1129.80553 
4	9.233	-90.93259	1116.75766	-495.21175	17.62268	1136.63300	-724.56970	289.27713	1198.00064	-650.67673	142.37941	1179.26872	-313.94611	205.70419	1550.44617	-561.80538	102.90669	1651.32965	-531.60252	-146.23512	1699.02283	-530.99552	41.03551	1753.57544	-590.99907	-2.67035	1727.50534	-440.53257	170.52904	1512.03323	-771.85524	255.07814	1197.07489	-861.65298	232.40612	1175.69954	-838.89076	167.65905	1216.71181	-865.03609	81.30500	936.81999	-898.04382	37.14196	956.06262	-897.38846	24.60655	963.46840	-851.80885	57.69893	1500.08606	-282.57488	116.42615	1155.22583	-281.48493	33.00699	1166.73653	-217.51865	118.20183	1171.76353	-201.11193	65.45638	870.05585	-207.63792	23.84311	863.09029	-230.81800	46.74456	868.61450	-278.01685	173.79833	979.32899	-764.04945	56.02015	1011.16096	-304.68681	195.73601	526.58413	-660.02029	317.28279	564.23862	-598.26317	188.26578	530.75924	-528.28049	-141.86538	556.39397	-538.90629	-35.76421	543.23433	-455.90305	-5.05298	540.37022	-592.77702	351.52500	155.28685	-625.51414	297.35023	154.44850	-566.34079	376.36162	149.39639	-531.47495	-181.01936	211.37508	-583.22849	-110.77403	182.94182	-547.32765	-123.61825	207.35147	-633.70869	-32.92860	1017.36877	1023.48869	5.49112	1038.34244	1304.82132	-195.61192	1132.95250	1280.31235	-232.22530	1103.16826	1064.53041	-24.78635	1519.76639	1106.44516	-134.52163	1589.98154	1158.90984	56.40517	1695.27313	1030.42809	-29.65882	1725.68176	1189.84558	-117.47793	1712.72751	1062.06146	-5.92054	1471.31821	1328.59848	36.85149	1133.10341	1419.44077	39.33015	1137.22382	1343.62900	100.71929	1191.82190	1406.38824	246.53378	988.59665	1365.60913	278.62745	1030.60005	1340.48950	246.29930	1025.47699	1297.04651	-228.40796	1468.29285	966.15044	-239.74468	1135.20363	1019.58237	-281.15156	1169.62601	930.11414	-315.62466	1149.07806	1001.02592	-304.24759	908.68820	922.50854	-264.33809	911.31180	902.19307	-230.73933	913.34724	941.73943	-72.93368	988.48961	1377.69974	-172.41425	979.13925	988.93356	-93.94681	440.55172	1354.30817	-179.50666	499.64874	1391.95862	-193.63148	472.77058	1270.43037	45.80420	466.89896	1046.30196	-70.63204	463.01022	1068.50136	38.09299	463.22598	1148.59077	-298.41558	153.98244	1395.08408	-329.50478	166.43723	1333.11188	-370.58533	188.84514	1400.49652	110.90831	144.47631	1060.51796	46.63777	113.08269	1084.55399	115.23148	142.63286	1127.70340 
